<?xml version="1.0" standalone="no"?>
<!DOCTYPE svg PUBLIC "-//W3C//DTD SVG 20010904//EN"
 "http://www.w3.org/TR/2001/REC-SVG-20010904/DTD/svg10.dtd">
<svg version="1.0" xmlns="http://www.w3.org/2000/svg"
 width="500.000000pt" height="500.000000pt" viewBox="0 0 500.000000 500.000000"
 preserveAspectRatio="xMidYMid meet">
<metadata>
Created by potrace 1.16, written by Peter Selinger 2001-2019
</metadata>
<g transform="translate(0.000000,500.000000) scale(0.100000,-0.100000)"
fill="#000000" stroke="none">
<path d="M135 4976 c-60 -28 -87 -56 -114 -116 -21 -45 -21 -51 -21 -2360 l0
-2315 24 -51 c26 -56 74 -98 133 -120 56 -20 4630 -20 4686 0 59 22 107 64
133 120 l24 51 0 2315 c0 2309 0 2315 -21 2360 -27 60 -54 88 -114 116 l-50
24 -2315 0 -2315 0 -50 -24z m1385 -800 c423 -64 689 -299 819 -721 109 -356
84 -726 -74 -1061 -107 -229 -244 -374 -439 -469 -407 -198 -930 -123 -1225
175 -293 297 -409 845 -275 1308 116 400 346 648 688 742 147 41 341 50 506
26z m2323 -1 c496 -75 788 -393 872 -950 73 -488 -129 -1029 -466 -1245 -338
-217 -808 -220 -1167 -8 -85 50 -230 199 -290 297 -198 323 -250 765 -137
1155 125 432 411 695 821 755 95 14 261 12 367 -4z m-1489 -2967 c88 -197 163
-358 166 -358 3 0 79 162 169 360 l164 360 79 0 c72 0 78 -2 70 -17 -5 -10
-103 -219 -217 -465 l-209 -448 -56 0 -56 0 -174 373 c-95 204 -193 414 -217
465 l-43 93 81 -3 81 -3 162 -357z"/>
<path d="M1175 4143 c-364 -47 -605 -236 -759 -595 -130 -304 -139 -700 -25
-1025 119 -335 322 -535 640 -626 371 -108 792 -9 1018 239 288 314 390 835
256 1299 -117 404 -373 634 -779 700 -82 14 -275 18 -351 8z m389 -58 c361
-75 576 -279 694 -658 49 -155 65 -287 59 -462 -6 -159 -21 -244 -68 -390
-140 -436 -464 -678 -909 -677 -427 0 -754 217 -901 597 -144 371 -123 787 57
1135 136 264 348 417 643 465 107 18 316 13 425 -10z"/>
<path d="M1116 4054 c-196 -42 -377 -149 -480 -283 -73 -94 -110 -176 -114
-252 -4 -60 -2 -68 19 -83 13 -9 27 -16 30 -16 21 0 78 65 143 164 126 191
263 296 431 331 96 20 306 19 398 -1 142 -32 259 -103 364 -219 86 -95 183
-288 183 -362 0 -40 -17 -25 -35 30 -9 28 -37 94 -61 145 -92 191 -279 341
-479 382 -88 19 -277 17 -355 -3 -210 -55 -380 -211 -476 -438 -37 -88 -53
-159 -36 -159 6 0 18 21 28 48 9 26 28 74 40 106 118 299 397 458 729 418 304
-38 498 -227 595 -582 29 -107 32 -230 7 -277 -33 -62 -95 -32 -104 50 -4 36
-1 48 19 72 21 24 27 26 46 16 28 -15 36 0 22 43 -14 43 -43 70 -68 62 -38
-13 -51 -70 -55 -256 -5 -214 -21 -282 -109 -460 -63 -126 -74 -174 -48 -205
41 -50 128 17 197 150 49 95 77 182 98 307 21 118 36 147 76 148 11 0 25 -20
39 -55 26 -63 41 -79 70 -70 52 16 69 128 50 325 -37 385 -195 674 -447 816
-82 46 -201 89 -303 108 -104 20 -320 20 -414 0z"/>
<path d="M1199 3685 c-132 -36 -240 -129 -307 -267 -48 -97 -67 -167 -81 -297
-6 -52 -15 -99 -20 -104 -18 -18 -40 2 -46 40 -12 71 -15 81 -31 87 -9 3 -30
-5 -50 -20 -19 -15 -41 -24 -49 -20 -22 8 -35 49 -35 112 0 30 -7 70 -14 89
-21 48 -64 49 -100 3 -42 -57 -58 -130 -63 -293 -6 -162 4 -242 37 -310 40
-83 120 -78 120 7 0 42 -15 54 -47 39 -25 -12 -29 -10 -50 14 -39 45 -27 145
18 145 53 0 91 -58 105 -157 14 -109 -16 -183 -76 -183 -40 0 -40 -31 -1 -71
56 -56 108 -29 120 63 4 33 11 53 19 53 7 0 28 -36 47 -80 46 -105 93 -172
176 -249 97 -90 253 -166 340 -166 33 0 48 -17 23 -27 -26 -10 -152 24 -229
63 -92 45 -201 136 -261 218 -46 62 -64 78 -64 57 0 -23 89 -137 154 -198 83
-78 157 -120 266 -155 65 -20 96 -23 230 -23 165 0 220 9 325 53 85 36 160 90
231 164 109 113 165 219 208 389 27 107 33 164 16 174 -9 6 -20 -28 -40 -130
-28 -140 -94 -279 -188 -393 -72 -88 -212 -174 -333 -206 -72 -18 -241 -25
-246 -9 -3 7 14 14 42 18 59 9 110 43 110 74 0 39 -42 60 -148 77 -54 8 -123
23 -153 34 -127 44 -229 140 -294 274 -65 134 -102 316 -65 316 10 0 15 -10
15 -31 0 -62 33 -177 77 -268 93 -194 244 -291 452 -291 217 0 373 100 461
294 60 131 85 326 69 521 -26 317 -170 526 -397 574 -69 14 -215 13 -273 -4z
m272 -51 c104 -30 212 -121 262 -220 67 -133 98 -333 79 -511 -14 -137 -33
-209 -78 -300 -46 -95 -115 -165 -201 -206 -60 -28 -80 -32 -173 -35 -88 -3
-115 0 -169 18 -154 52 -246 159 -301 351 -31 106 -39 340 -16 463 44 232 153
385 311 436 76 24 210 26 286 4z"/>
<path d="M1262 3610 c-172 -25 -296 -167 -343 -395 -18 -85 -20 -123 -16 -255
8 -223 49 -349 147 -450 150 -154 431 -153 576 2 116 124 174 374 144 622 -15
126 -39 204 -88 286 -88 145 -242 215 -420 190z"/>
<path d="M1543 2289 c-24 -6 -43 -14 -43 -20 0 -5 5 -9 10 -9 18 0 50 -40 50
-62 0 -12 -10 -32 -22 -45 -26 -28 -12 -30 54 -8 84 29 137 109 89 134 -30 16
-92 21 -138 10z"/>
<path d="M3490 4143 c-143 -16 -353 -101 -462 -187 -186 -148 -329 -429 -378
-741 -16 -101 -14 -334 4 -445 54 -339 211 -610 434 -755 385 -249 959 -205
1261 97 380 379 452 1093 161 1603 -132 231 -373 380 -685 425 -67 9 -261 11
-335 3z m307 -43 c183 -23 350 -87 475 -182 199 -151 335 -442 369 -787 27
-271 -47 -593 -187 -819 -58 -93 -197 -234 -277 -281 -145 -85 -330 -133 -512
-133 -134 0 -213 11 -329 48 -337 107 -543 355 -637 763 -29 123 -36 375 -15
501 67 408 271 708 564 826 160 65 359 88 549 64z"/>
<path d="M3450 4055 c-159 -33 -308 -107 -415 -207 -160 -150 -248 -374 -164
-419 36 -19 75 15 156 139 177 269 341 362 637 362 162 0 245 -17 356 -71 116
-57 256 -196 317 -314 53 -105 89 -213 74 -228 -7 -7 -12 -5 -17 9 -28 81 -97
230 -128 277 -47 71 -144 160 -227 210 -208 123 -528 124 -731 1 -152 -92
-285 -276 -333 -461 -19 -73 -4 -92 20 -26 70 191 123 281 222 374 127 118
312 179 506 165 115 -8 166 -21 262 -66 150 -72 263 -202 334 -384 92 -236 95
-441 6 -441 -25 0 -33 7 -49 38 -16 33 -17 45 -7 78 13 43 37 61 69 52 18 -4
22 -1 22 17 0 30 -30 79 -53 86 -25 8 -55 -21 -62 -60 -4 -17 -8 -98 -9 -181
-4 -214 -33 -328 -126 -502 -29 -53 -50 -107 -50 -124 0 -122 123 -74 203 79
55 105 75 163 102 300 14 69 32 137 41 149 25 39 51 29 78 -29 40 -91 71 -99
109 -27 16 30 18 52 13 199 -8 254 -59 442 -167 620 -125 205 -323 334 -592
385 -97 18 -307 18 -397 0z"/>
<path d="M3523 3685 c-209 -57 -348 -253 -386 -544 -8 -61 -19 -117 -25 -123
-19 -19 -42 10 -42 52 0 22 -8 47 -19 61 l-18 23 -28 -20 c-15 -10 -34 -23
-41 -29 -9 -6 -19 -4 -32 8 -15 13 -21 37 -26 100 -8 96 -24 127 -66 127 -50
0 -89 -79 -109 -224 -19 -138 -8 -313 26 -398 16 -39 55 -78 79 -78 24 0 44
31 44 70 0 46 -13 57 -47 39 -23 -12 -27 -11 -44 9 -63 79 -3 197 67 131 37
-35 57 -108 53 -199 -5 -92 -22 -120 -76 -120 -44 0 -43 -22 1 -66 56 -56 116
-36 116 41 0 40 10 75 21 75 5 0 28 -42 52 -92 72 -153 160 -253 294 -334 63
-38 131 -63 200 -72 25 -4 48 -13 51 -20 10 -31 -128 1 -243 57 -90 44 -224
161 -272 236 -43 68 -64 54 -22 -15 101 -166 286 -289 482 -320 95 -16 288 -8
372 14 197 53 372 202 469 401 53 108 105 324 86 355 -10 15 -30 -18 -30 -48
0 -35 -48 -205 -75 -265 -93 -211 -270 -367 -467 -411 -77 -18 -240 -24 -245
-10 -2 5 23 15 55 22 61 13 102 41 102 70 -1 43 -39 62 -156 78 -207 29 -348
124 -434 294 -36 71 -76 200 -85 273 -6 49 -5 57 9 57 10 0 16 -9 16 -24 0
-46 49 -216 82 -282 44 -91 142 -194 219 -233 82 -41 156 -54 269 -48 250 13
411 164 477 449 26 114 23 416 -6 523 -60 225 -193 373 -372 414 -63 15 -215
12 -276 -4z m330 -72 c127 -60 217 -183 263 -358 27 -100 27 -399 0 -500 -31
-121 -87 -225 -155 -288 -77 -71 -146 -98 -265 -105 -154 -8 -260 29 -352 124
-122 124 -182 365 -156 617 20 194 66 316 154 412 96 105 173 136 333 132 100
-2 116 -5 178 -34z"/>
<path d="M3590 3610 c-168 -22 -299 -167 -346 -385 -24 -113 -24 -343 0 -450
44 -193 138 -313 281 -358 72 -22 132 -27 203 -17 135 19 237 95 297 223 60
125 70 180 70 382 0 198 -10 255 -65 372 -79 170 -247 258 -440 233z"/>
<path d="M3872 2291 c-47 -12 -48 -17 -13 -50 36 -34 36 -63 -3 -93 l-21 -18
25 0 c14 0 48 11 75 24 77 36 107 80 77 116 -20 23 -89 34 -140 21z"/>
</g>
</svg>
